# xmcd
#
# Track frame offsets:
#	150
#	21082
#	42247
#	63287
#	83137
#	104610
#	112142
#	132905
#	153347
#	177865
#
# Disc length: 2799 seconds
#
# Revision: 1
# Processed by: cddbd v1.5PL3 Copyright (c) Steve Scherf et al.
# Submitted via: CDex 1.50Beta5
#
DISCID=800aed0a
DTITLE=エース清水 - TIME AXIS
DYEAR=1993
DGENRE=Rock
TTITLE0=Tealess Angel
TTITLE1=Bring You Back To Me
TTITLE2=Disharmony
TTITLE3=Waking Up
TTITLE4=Flow
TTITLE5=One For The Road
TTITLE6=Street Games
TTITLE7=カラックスの白日夢
TTITLE8=彷徨
TTITLE9=Higher-Self
EXTD=
EXTT0=
EXTT1=
EXTT2=
EXTT3=
EXTT4=
EXTT5=
EXTT6=
EXTT7=
EXTT8=
EXTT9=
PLAYORDER=
